<svg width="105" height="24" viewBox="0 0 105 24" fill="none" xmlns="http://www.w3.org/2000/svg">
<path fill-rule="evenodd" clip-rule="evenodd" d="M66.6744 1.82814V6.18215H69.8707V10.0031H66.6744V17.4743C66.6744 18.5423 67.1732 19.0329 68.0863 19.0329C68.7066 19.0329 69.3914 18.755 69.6852 18.5377L71.5605 21.8918C70.8294 22.4215 69.1908 23.2242 66.9682 23.2242C64.0644 23.2242 62.5318 21.6394 62.5318 18.644V3.33684L66.6744 1.82814ZM96.4564 6.03719C101.796 6.03719 105 9.96851 105 14.6139C105 19.2589 101.796 23.2242 96.4564 23.2242C91.1506 23.2242 87.9459 19.2589 87.9459 14.6139C87.9459 9.96851 91.1506 6.03719 96.4564 6.03719ZM52.296 6.03719C57.0256 6.03719 60.1911 9.69758 60.1911 15.0217V16.0375H48.4787C48.773 18.0378 50.3383 19.6992 53.0136 19.6992C54.0914 19.6992 55.4799 19.3199 56.5109 18.6435L58.1729 21.6413C56.6368 22.6786 54.5899 23.2242 52.5567 23.2242C47.7615 23.2242 44.1401 19.8701 44.1401 14.6139C44.1401 9.86841 47.533 6.03719 52.296 6.03719ZM80.9735 6.03719C83.717 6.03719 85.4297 6.97585 86.6083 8.25158L84.8129 11.3573C83.9742 10.4655 82.615 9.86714 81.1688 9.86714C78.6407 9.86714 76.8662 11.7665 76.8662 14.6137C76.8662 17.4623 78.6407 19.3942 81.1688 19.3942C82.615 19.3942 84.101 18.6714 84.8058 18.0813L86.4584 21.1549C85.3095 22.286 83.5484 23.2242 80.9735 23.2242C76.1103 23.2242 72.5637 19.6642 72.5637 14.6137C72.5637 9.59711 76.1103 6.03719 80.9735 6.03719ZM22.4045 8.49247V22.8734H18.3917V10.0528L22.4045 8.49247ZM41.465 11.2306V22.8734H37.222V12.9048C37.222 10.1303 36.7937 9.42317 34.434 9.42317C32.777 9.42317 31.4472 9.90462 30.627 10.2205V22.8734H26.4172V7.63471L26.4241 7.63203C26.6107 7.55932 30.5688 6.02897 33.7965 5.74634C39.6912 5.23117 41.465 8.12171 41.465 11.2306ZM8.26393 0.775879C12.9076 0.775879 15.3822 4.1151 15.3822 8.12792C15.3822 12.1046 12.8764 15.4893 8.26393 15.4893H4.27489V22.8734H0V0.775879H8.26393ZM96.4568 9.89549C93.7826 9.89549 92.293 12.0862 92.293 14.6138C92.293 17.1766 93.7826 19.3659 96.4568 19.3659C99.1637 19.3659 100.653 17.1766 100.653 14.6138C100.653 12.0862 99.1637 9.89549 96.4568 9.89549ZM52.3004 9.54474C49.7468 9.54474 48.6474 11.4168 48.4873 13.0523H56.1783C56.0496 11.4851 55.0156 9.54474 52.3004 9.54474ZM4.01274 4.98493V11.2985H7.9299C10.1341 11.2985 11.3694 10.0641 11.3694 8.19376C11.3694 6.288 10.4508 4.99507 7.9299 4.99507L4.01274 4.98493ZM22.4045 1.12663V4.85888L18.3917 6.38795L18.3982 1.12663H22.4045Z" fill="#13171A"/>
</svg>
